<?xml version='1.0' encoding='utf-8'?>
<svg xmlns="http://www.w3.org/2000/svg" width="744.09448819" height="1052.3622047" id="svg2" version="1.1"> <defs id="defs4"/> <metadata id="metadata7"> </metadata> <g id="layer1"> <path style="fill:#482c15;fill-opacity:1;stroke:none" d="m 257.9375,281.4375 c -13.43138,0.0552 -25.36118,5.01742 -32.5625,14.84375 -14.40263,19.65267 -4.52642,51.35782 22.0625,70.84375 26.5889,19.48592 59.81611,19.37142 74.21875,-0.28125 14.40263,-19.65267 4.5264,-51.38907 -22.0625,-70.875 -13.29446,-9.74296 -28.22487,-14.58644 -41.65625,-14.53125 z M 566.96875,294.25 c -6.85314,-0.13801 -13.41681,1.49551 -19.1875,5.09375 -20.518,12.79373 -23.12167,45.64661 -5.8125,73.40625 17.30916,27.75965 47.98198,39.88748 68.5,27.09375 20.518,-12.79375 23.12167,-45.64661 5.8125,-73.40625 -12.44096,-19.95225 -31.79892,-31.83481 -49.3125,-32.1875 z M 231.125,300.46875 c 23.70746,27.3394 71.67149,31.13113 84.84375,62.1875 -22.4114,-25.43136 -73.19763,-33.62791 -84.84375,-62.1875 z M 171.875,304 c -14.42519,0.2905 -30.34666,10.09743 -40.59375,26.53125 -14.25682,22.86443 -12.11855,49.93109 4.78125,60.46875 16.89981,10.53765 42.14943,0.55194 56.40625,-22.3125 14.25682,-22.86443 12.11855,-49.96235 -4.78125,-60.5 -4.75307,-2.96372 -10.16786,-4.30117 -15.8125,-4.1875 z m 293.4375,0.28125 c -9.22682,-0.0379 -19.49225,3.27573 -28.625,9.96875 -18.26551,13.38604 -25.05027,35.1869 -15.15625,48.6875 9.89404,13.50059 32.70325,13.57354 50.96875,0.1875 18.26552,-13.38604 25.05027,-35.15565 15.15625,-48.65625 -4.94702,-6.75029 -13.11693,-10.14959 -22.34375,-10.1875 z M 551.5,305.3125 c 29.75567,15.34151 29.92373,63.07122 55.21875,88.5625 C 579.32059,380.22914 575.00306,329.37952 551.5,305.3125 z m -366.875,7.8125 c -19.35846,19.82297 -22.93331,61.69799 -45.5,72.9375 20.83443,-20.99608 20.99153,-60.30136 45.5,-72.9375 z m 299.09375,4.21875 c -8.00042,19.61929 -42.88553,25.24843 -58.28125,42.71875 9.0488,-21.33448 41.99517,-23.93768 58.28125,-42.71875 z m -264.5,40.6875 c -6.7042,0.13501 -14.1126,4.67477 -18.875,12.3125 -6.62596,10.62639 -5.63555,23.22755 2.21875,28.125 7.8543,4.89745 19.5928,0.2514 26.21875,-10.375 6.62596,-10.6264 5.63555,-23.22756 -2.21875,-28.125 -2.20902,-1.37741 -4.72037,-1.99033 -7.34375,-1.9375 z m 5.9375,4.21875 c -8.99698,9.21286 -10.66823,28.68261 -21.15625,33.90625 9.68294,-9.75807 9.76577,-28.03351 21.15625,-33.90625 z m 282.03125,6.90625 c -0.62736,-0.007 -1.27161,0.0146 -1.90625,0.0313 -20.30863,0.53377 -36.45701,13.1455 -36.0625,28.15625 0.39453,15.01074 17.19137,26.72126 37.5,26.1875 20.30861,-0.53376 36.45703,-13.11427 36.0625,-28.125 -0.38221,-14.54164 -16.14547,-26.03264 -35.59375,-26.25 z m -137.125,6.21875 c -20.78706,0.39387 -37.2204,23.5326 -36.6875,51.65625 0.5329,28.12365 17.83796,50.58133 38.625,50.1875 20.78705,-0.39393 37.18915,-23.50136 36.65625,-51.625 -0.5329,-28.12366 -17.80671,-50.61263 -38.59375,-50.21875 z m 0.125,6.0625 c 15.19666,24.44715 -5.74026,59.77854 1.6875,89.75 -14.20443,-22.15585 5.04576,-61.62013 -1.6875,-89.75 z m -79.34375,4.125 c -4.48553,0.055 -8.6416,1.41481 -11.96875,4.21875 -9.67898,8.15693 -8.56711,25.40493 2.46875,38.5 11.03585,13.09508 27.82101,17.09445 37.5,8.9375 9.67898,-8.15695 8.56711,-25.37367 -2.46875,-38.46875 -7.24227,-8.59365 -16.96796,-13.29247 -25.53125,-13.1875 z m 232.875,6.53125 c 5.21694,-0.0254 10.1538,0.8647 14.6875,3.40625 -20.51553,-3.93963 -48.3633,11.24384 -64.8125,1.71875 16.40018,3.28541 34.47418,-5.04892 50.125,-5.125 z M 252.1875,392.4375 c -0.34036,-0.0147 -0.68621,-10e-4 -1.03125,0.0313 -5.52064,0.51669 -9.41781,6.99967 -8.71875,14.46875 0.69905,7.46909 5.72937,13.11044 11.25,12.59375 5.52063,-0.5167 9.44906,-6.99967 8.75,-14.46875 -0.65538,-7.00226 -5.14461,-12.40426 -10.25,-12.625 z m 175.3125,0.125 c -2.62291,0.0728 -5.10943,0.83095 -7.25,2.3125 -7.61091,5.26774 -8.00195,17.85914 -0.875,28.15625 7.12693,10.29711 19.07659,14.39274 26.6875,9.125 7.61092,-5.26774 8.00194,-17.8904 0.875,-28.1875 C 441.81502,396.5677 434.20298,392.3765 427.5,392.5625 z m -146.25,0.0625 c 16.56048,5.73374 20.21386,30.45617 35.21875,41.78125 C 301.25611,429.37557 295.22034,403.34549 281.25,392.625 z m -29.9375,1.46875 c 4.21681,5.61097 -0.12946,16.46464 2.21875,23.8125 -4.52612,-6.20071 0.35066,-15.98863 -2.21875,-23.8125 z m 170.46875,2.96875 c 4.88894,11.91305 22.08322,21.17538 22.71875,32.875 -5.11738,-12.75899 -21.84528,-20.08949 -22.71875,-32.875 z M 178.0625,407.53125 c -3.92566,-0.11046 -8.32681,1.21421 -12.28125,3.96875 -7.90889,5.50908 -11.04067,14.71679 -6.96875,20.5625 4.07193,5.8457 13.80986,6.10283 21.71875,0.59375 7.90889,-5.50908 11.00944,-14.7168 6.9375,-20.5625 -2.03597,-2.92286 -5.48059,-4.45204 -9.40625,-4.5625 z m 393.625,4.78125 c -5.33043,-0.20169 -11.39391,3.3659 -15.21875,9.5 -5.09978,8.17879 -4.32645,17.85559 1.71875,21.625 6.0452,3.76941 15.08772,0.17879 20.1875,-8 5.09978,-8.1788 4.32645,-17.8556 -1.71875,-21.625 -1.5113,-0.94235 -3.19194,-1.43277 -4.96875,-1.5 z M 185.75,413.28125 c -3.60479,8.26629 -18.4892,10.31745 -25.21875,17.59375 4.06842,-8.98539 18.09697,-9.76884 25.21875,-17.59375 z m 389.8125,2.28125 c -6.92468,7.09084 -8.20896,22.07328 -16.28125,26.09375 7.45264,-7.51047 7.51437,-21.57369 16.28125,-26.09375 z m -456.84375,1.875 c -0.4455,-0.003 -0.89453,0.004 -1.34375,0.0313 -14.37519,0.88104 -25.067006,17.36372 -23.875,36.8125 1.191999,19.44878 13.81231,34.4748 28.1875,33.59375 14.37518,-0.88104 25.067,-17.36372 23.875,-36.8125 -1.15475,-18.841 -13.03318,-33.52479 -26.84375,-33.625 z m 505.96875,0.78125 c -13.50103,0.098 -25.08988,14.48753 -26.21875,32.90625 -1.16529,19.01288 9.2595,35.10746 23.3125,35.96875 14.05299,0.8613 26.39721,-13.86212 27.5625,-32.875 C 650.50904,435.20587 640.053,419.11129 626,418.25 c -0.43916,-0.0269 -0.87698,-0.0344 -1.3125,-0.0313 z m -400.09375,1.25 c -9.16656,0.23583 -17.65173,3.14615 -24.375,8.96875 -19.55858,16.9385 -16.82306,52.13218 6.09375,78.59375 22.91681,26.46161 57.34764,34.18854 76.90625,17.25 19.55859,-16.93852 16.82306,-52.13214 -6.09375,-78.59375 -15.03913,-17.36541 -35.03145,-26.66897 -52.53125,-26.21875 z M 117.625,421.625 c -3.08896,19.79698 12.39162,45.97615 3.8125,62.0625 3.46636,-21.10711 -12.94967,-44.33896 -3.8125,-62.0625 z m 508.125,0.71875 c 8.93238,17.32632 -7.10742,40.02221 -3.71875,60.65625 -8.38684,-15.72581 6.73848,-41.30297 3.71875,-60.65625 z M 205.15625,434.125 c 34.00611,11.26355 42.14451,61.70288 73.125,84.4375 -31.2319,-9.86366 -44.27571,-62.91015 -73.125,-84.4375 z m 294.46875,0.0937 c -10.97588,0.25371 -20.64235,4.48264 -26.375,12.625 -11.46523,16.28477 -2.90729,42.05069 19.125,57.5625 22.03231,15.51182 49.19099,14.90974 60.65625,-1.375 11.46527,-16.28475 2.9073,-42.08193 -19.125,-57.59375 -11.01615,-7.75585 -23.30537,-11.47241 -34.28125,-11.2187 z m -58.46875,13.9063 c -8.56329,-0.10497 -18.28898,4.59385 -25.53125,13.1875 -11.03586,13.09508 -12.14773,30.3118 -2.46875,38.46875 9.67899,8.15695 26.46415,4.15758 37.5,-8.9375 11.03586,-13.09507 12.14773,-30.31181 2.46875,-38.46875 -3.32715,-2.80394 -7.48322,-4.19502 -11.96875,-4.25 z M 478,450.1875 c 25.1619,1.56914 44.76476,38.77555 70.3125,49.5 -27.49415,-2.0998 -42.94857,-38.26947 -70.3125,-49.5 z m -27.25,5 c -13.97034,10.7205 -20.00611,36.75057 -35.21875,41.78125 15.00489,-11.32508 18.65827,-36.0475 35.21875,-41.78125 z m -283.5625,1.90625 c -0.34036,-0.0147 -0.68621,-10e-4 -1.03125,0.0313 -5.52064,0.51669 -9.41781,6.99967 -8.71875,14.46875 0.69905,7.46909 5.72937,13.07919 11.25,12.5625 5.52063,-0.5167 9.44906,-6.96842 8.75,-14.4375 -0.65538,-7.00226 -5.14461,-12.40426 -10.25,-12.625 z m -0.875,1.625 c 4.21681,5.61097 -0.12946,16.49589 2.21875,23.84375 -4.52612,-6.20071 0.35066,-16.01988 -2.21875,-23.84375 z m 162.90625,6.46875 c -6.7042,0.13501 -14.1126,4.67477 -18.875,12.3125 -6.62596,10.62639 -5.63555,23.1963 2.21875,28.09375 7.8543,4.89745 19.5928,0.2514 26.21875,-10.375 6.62596,-10.6264 5.63555,-23.19631 -2.21875,-28.09375 -2.20902,-1.37741 -4.72037,-1.99033 -7.34375,-1.9375 z m 5.9375,4.21875 c -8.99698,9.21286 -10.66823,28.68261 -21.15625,33.90625 9.68294,-9.75807 9.76577,-28.03351 21.15625,-33.90625 z m 245.8125,5.4375 c -4.14519,0.23237 -8.5772,3.43664 -11.09375,8.46875 -3.35542,6.70949 -2.05293,14.14491 2.90625,16.625 4.95919,2.48008 11.7071,-0.94677 15.0625,-7.65625 3.35539,-6.70949 2.05294,-14.14493 -2.90625,-16.625 -1.2398,-0.62002 -2.58702,-0.88996 -3.96875,-0.8125 z m 3.25,2.25 c 0.61288,6.99206 -8.82727,13.92779 -10.71875,21.40625 -0.56365,-7.65616 8.76337,-13.40679 10.71875,-21.40625 z m -438.5,10.40625 c -6.35794,-0.0486 -12.47956,1.41061 -18.03125,4.53125 -22.20676,12.48254 -26.54441,46.95555 -9.65625,77 16.88815,30.04445 48.60573,44.26381 70.8125,31.78125 22.20677,-12.48255 26.51316,-46.95553 9.625,-77 -12.66611,-22.53334 -33.67617,-36.16682 -52.75,-36.3125 z m 222,5.46875 c -3.76193,0.0682 -7.25441,1.22562 -10.03125,3.59375 -8.07807,6.88912 -7.07056,21.3521 2.25,32.28125 9.32055,10.92916 23.4219,14.20162 31.5,7.3125 8.07808,-6.88912 7.07055,-21.35209 -2.25,-32.28125 -6.11661,-7.17226 -14.28688,-11.03636 -21.46875,-10.90625 z m -236.40625,5.5 c 10.34107,33.89842 55.13449,63.65242 53.875,95.875 -10.75005,-36.27509 -54.76104,-60.61584 -53.875,-95.875 z m 228.375,0.46875 c 6.95289,13.03133 27.67565,21.5968 29.75,34.875 -7.31114,-13.97035 -27.27893,-20.38501 -29.75,-34.875 z M 594.75,504.625 c -14.91186,0.1139 -31.31642,10.78975 -41.21875,28.40625 -13.20311,23.48867 -9.82994,50.42868 7.53125,60.1875 17.36118,9.75882 42.14065,-1.35509 55.34375,-24.84375 13.20311,-23.48866 9.82993,-50.42869 -7.53125,-60.1875 -4.3403,-2.43971 -9.15438,-3.60047 -14.125,-3.5625 z m -140.8125,8.40625 c -5.02553,-0.22491 -9.56392,1.42448 -12.4375,4.96875 -5.74721,7.08853 -2.65286,19.13066 6.9375,26.90625 9.59039,7.77562 22.03405,8.33852 27.78125,1.25 5.74717,-7.08854 2.62163,-19.13068 -6.96875,-26.90625 -4.79519,-3.88779 -10.28697,-5.99384 -15.3125,-6.21875 z m 152.09375,0.1875 c 0.6927,27.5655 -33.72065,46.60899 -42.125,74.96875 -0.98467,-25.19152 34.04038,-48.46707 42.125,-74.96875 z M 443.5625,519.6875 c 11.45412,1.49885 19.24759,19.08505 30.59375,24.78125 -12.50385,-1.81388 -18.43304,-18.7973 -30.59375,-24.78125 z m 58.1875,6.09375 c -1.77681,0.0672 -3.45745,0.55765 -4.96875,1.5 -6.0452,3.7694 -6.81853,13.4462 -1.71875,21.625 5.09978,8.17879 14.11105,11.73816 20.15625,7.96875 6.0452,-3.76941 6.81853,-13.44621 1.71875,-21.625 -3.82484,-6.1341 -9.85707,-9.67044 -15.1875,-9.46875 z m -3.875,3.25 c 8.76688,4.52006 8.79736,18.58328 16.25,26.09375 -8.07229,-4.02047 -9.32532,-19.00291 -16.25,-26.09375 z m -185,2.75 c -2.04138,0.0195 -4.10534,0.19087 -6.21875,0.53125 -16.90728,2.72304 -28.98144,15.06579 -26.96875,27.5625 2.0127,12.4967 17.34271,20.41055 34.25,17.6875 16.90728,-2.72304 28.98142,-15.0658 26.96875,-27.5625 -1.76109,-10.9346 -13.74159,-18.35543 -28.03125,-18.21875 z m -73.34375,12.75 c -6.03487,0.24274 -12.73746,3.60881 -17.78125,9.59375 -8.07007,9.57589 -8.85909,22.19141 -1.78125,28.15625 7.07784,5.96484 19.33619,3.01339 27.40625,-6.5625 8.07007,-9.57589 8.89034,-22.16017 1.8125,-28.125 -2.65419,-2.23681 -6.03533,-3.20814 -9.65625,-3.0625 z m 155.28125,4.40625 c -1.30917,0.0142 -2.66394,0.20123 -4.03125,0.53125 -7.29233,1.7601 -12.1447,7.54752 -10.84375,12.9375 1.30096,5.38998 8.27019,8.32261 15.5625,6.5625 7.29231,-1.76013 12.14472,-7.54753 10.84375,-12.9375 -1.05701,-4.37937 -5.85819,-7.15531 -11.53125,-7.09375 z m -147.375,0.71875 c -10.21593,7.83946 -14.62562,26.88377 -25.75,30.5625 10.97246,-8.28157 13.64,-26.36964 25.75,-30.5625 z m 89.8125,0.9375 c -13.43877,11.24832 -36.50523,1.65046 -53.9375,8.6875 12.14231,-10.45449 37.55602,-2.22635 53.9375,-8.6875 z m 67.53125,5.8125 c -4.9502,4.97595 -16.34478,2.25003 -23.28125,5.625 5.48963,-5.36642 15.90529,-1.96301 23.28125,-5.625 z m 45.5,4.40625 c -2.3355,0.0405 -4.64124,0.51048 -6.8125,1.46875 -11.58008,5.11079 -15.35208,21.95785 -8.4375,37.625 6.91457,15.66716 21.91991,24.20452 33.5,19.09375 11.5801,-5.11078 15.35207,-21.92659 8.4375,-37.59375 -5.61808,-12.72957 -16.567,-20.76929 -26.6875,-20.59375 z m -5.3125,4.84375 c 3.49213,17.25991 24.22739,34.12406 22.0625,50 -3.58069,-18.45489 -24.18803,-32.60438 -22.0625,-50 z m 82.21875,5.71875 c -0.34036,-0.0147 -0.68621,-10e-4 -1.03125,0.0313 -5.52064,0.51669 -9.41781,6.99967 -8.71875,14.46875 0.69905,7.46909 5.72937,13.11044 11.25,12.59375 5.52063,-0.5167 9.44906,-6.99967 8.75,-14.46875 -0.65538,-7.00226 -5.14461,-12.40426 -10.25,-12.625 z m -0.875,1.65625 c 4.21681,5.61097 -0.12946,16.46464 2.21875,23.8125 -4.52612,-6.20071 0.35066,-15.98863 -2.21875,-23.8125 z m -136.84375,5.78125 c -24.80414,-0.60821 -46.97631,25.14103 -50.125,58.90625 -3.25029,34.85445 15.01923,65.06636 40.78125,67.46875 25.762,2.40238 49.28096,-23.89555 52.53125,-58.75 3.25029,-34.8544 -15.01928,-65.06634 -40.78125,-67.46875 -0.80506,-0.0751 -1.60612,-0.13663 -2.40625,-0.15625 z m -59.21875,1.25 c -5.33043,-0.20169 -11.36266,3.33465 -15.1875,9.46875 -5.09978,8.17879 -4.32645,17.85559 1.71875,21.625 6.0452,3.76941 15.05647,0.21004 20.15625,-7.96875 5.09978,-8.1788 4.32645,-17.8556 -1.71875,-21.625 -1.5113,-0.94235 -3.19194,-1.43277 -4.96875,-1.5 z m -68.09375,2.5 c -2.19676,0.0284 -4.32889,0.4515 -6.375,1.34375 -10.91258,4.75864 -14.56317,20.57967 -8.125,35.34375 6.43815,14.76406 20.52491,22.88364 31.4375,18.125 10.91258,-4.75864 14.53189,-20.5797 8.09375,-35.34375 -5.23101,-11.99581 -15.51196,-19.59176 -25.03125,-19.46875 z m 71.96875,0.75 c -6.92468,7.09084 -8.17771,22.07328 -16.25,26.09375 7.45264,-7.51047 7.48312,-21.57369 16.25,-26.09375 z m 57.0625,3.15625 c 15.39539,32.34602 -15.39471,73.12077 -10.375,111.21875 -14.48674,-29.37444 14.79186,-75.49481 10.375,-111.21875 z m -134.03125,0.625 c 3.21271,16.24786 22.63339,32.17107 20.53125,47.09375 -3.29099,-17.37212 -22.60267,-30.7416 -20.53125,-47.09375 z M 206,604.625 c -3.80219,0.0471 -7.3641,1.15909 -10.34375,3.40625 -9.53487,7.19089 -9.3851,23.47486 0.34375,36.375 9.72884,12.90014 25.34011,17.53464 34.875,10.34375 9.53487,-7.19089 9.38511,-23.5061 -0.34375,-36.40625 C 223.84267,609.47491 214.36481,604.52132 206,604.625 z m -8.25,6.15625 c 6.92864,15.10094 29.59718,26.1382 31.03125,41.1875 -7.26757,-16.17949 -29.23337,-24.75083 -31.03125,-41.1875 z m 321.71875,0.53125 c -10.07381,-0.12487 -21.47613,5.85043 -29.53125,16.53125 -11.71654,15.53575 -11.92043,35.15245 -0.4375,43.8125 11.48295,8.66005 30.28347,3.06699 42,-12.46875 11.71654,-15.53575 11.92043,-35.1212 0.4375,-43.78125 -3.58842,-2.70627 -7.88975,-4.03699 -12.46875,-4.09375 z m 9.9375,7.40625 c -2.1652,19.79482 -28.62261,30.10866 -37.375,49.59375 1.72706,-18.124 29.03078,-31.40756 37.375,-49.59375 z M 312.25,628.28125 c -11.65456,0.50788 -21.85306,12.82702 -23.34375,28.8125 -1.59008,17.05119 7.33443,31.82472 19.9375,33 12.60306,1.17527 24.09742,-11.69881 25.6875,-28.75 1.59008,-17.05117 -7.33445,-31.82471 -19.9375,-33 -0.78769,-0.0734 -1.56678,-0.0964 -2.34375,-0.0625 z m 2,3.71875 c 7.5316,15.82404 -7.5182,35.76829 -5.0625,54.40625 -7.08708,-14.3703 7.22328,-36.92969 5.0625,-54.40625 z m 146.40625,5 c -5.86217,-0.22181 -12.48113,3.6915 -16.6875,10.4375 -5.60851,8.99466 -4.77323,19.63583 1.875,23.78125 6.64823,4.14542 16.579,0.21341 22.1875,-8.78125 5.60851,-8.99467 4.77323,-19.63584 -1.875,-23.78125 -1.66206,-1.03635 -3.54594,-1.58231 -5.5,-1.65625 z m 4.28125,3.59375 c -7.61545,7.79818 -8.99747,24.26598 -17.875,28.6875 8.19607,-8.25967 8.23358,-23.71655 17.875,-28.6875 z M 249.25,666.28125 c -2.04045,0.0253 -3.96346,0.63781 -5.5625,1.84375 -5.11692,3.85901 -5.03352,12.57711 0.1875,19.5 5.221,6.9229 13.60183,9.4215 18.71875,5.5625 5.11692,-3.85902 5.03351,-12.60835 -0.1875,-19.53125 -3.58944,-4.75949 -8.66725,-7.43064 -13.15625,-7.375 z m -4.4375,3.3125 c 3.71827,8.10396 15.88665,14.01751 16.65625,22.09375 -3.90016,-8.68276 -15.69142,-13.27297 -16.65625,-22.09375 z m 212.09375,14.96875 c -16.30422,-0.1582 -34.46551,11.1789 -45.625,30.25 -14.87932,25.42812 -11.70091,54.97094 7.09375,65.96875 18.79475,10.99772 46.08944,-0.69688 60.96875,-26.125 14.87932,-25.42813 11.70094,-54.971 -7.09375,-65.96875 -4.69868,-2.74945 -9.90901,-4.07227 -15.34375,-4.125 z m 12.15625,9.59375 c 0.23466,30.14851 -37.74321,50.3119 -47.46875,81.15625 -0.59886,-27.55877 38.12798,-52.33713 47.46875,-81.15625 z m -179.90625,1.25 c -4.50633,0.0437 -8.82274,1.15774 -12.71875,3.4375 -15.58399,9.11901 -18.2125,33.60325 -5.875,54.6875 12.33747,21.08424 34.94721,30.77523 50.53125,21.65625 15.58397,-9.11905 18.21249,-33.60326 5.875,-54.6875 -9.25311,-15.81319 -24.29352,-25.22492 -37.8125,-25.09375 z m -10.0625,7.96875 c 7.74509,23.89596 39.84031,44.43034 39.34375,67.28125 -8.06412,-25.57521 -39.53833,-42.28299 -39.34375,-67.28125 z m 86.96875,22.03125 c -2.62291,0.0728 -5.10943,0.83095 -7.25,2.3125 -7.61091,5.26774 -8.00195,17.89039 -0.875,28.1875 7.12693,10.29711 19.07659,14.36149 26.6875,9.09375 7.61092,-5.26774 8.00194,-17.8904 0.875,-28.1875 -5.12248,-7.40105 -12.73452,-11.59225 -19.4375,-11.40625 z m -5.71875,4.53125 c 4.88894,11.91305 22.11447,21.14413 22.75,32.84375 -5.11738,-12.75899 -21.87653,-20.05824 -22.75,-32.84375 z m 8.5625,50.3125 c -15.24746,0.28891 -27.29713,17.2461 -26.90625,37.875 0.39089,20.6289 13.06505,37.10138 28.3125,36.8125 15.24745,-0.28894 27.29713,-17.24611 26.90625,-37.875 -0.39089,-20.62891 -13.06505,-37.10142 -28.3125,-36.8125 z m 0.0625,4.4375 c 11.14686,17.93216 -4.19831,43.82822 1.25,65.8125 -10.41905,-16.25148 3.68889,-45.17904 -1.25,-65.8125 z" id="path4403"/> <path style="fill:#6b411d;fill-opacity:1;stroke:none" d="m 612.875,504.17428 c -17.36119,-9.75883 -42.13884,1.3696 -55.34194,24.85826 -13.20311,23.48867 -9.83057,50.44046 7.53062,60.19928 17.36118,9.75882 42.13883,-1.36961 55.34193,-24.85827 13.20311,-23.48866 9.83057,-50.44046 -7.53061,-60.19927 z m -2.83878,5.05024 c 0.6927,27.5655 -33.7252,46.58979 -42.12955,74.94955 -0.98467,-25.19152 34.04493,-48.44787 42.12955,-74.94955 z" id="path2985-7"/> <path id="path3802" d="m 630.01499,414.24771 c -14.05299,-0.8613 -26.39065,13.85244 -27.55594,32.86531 -1.16529,19.01288 9.2832,35.12316 23.3362,35.98445 14.05299,0.8613 26.39065,-13.85243 27.55594,-32.86531 1.16529,-19.01288 -9.2832,-35.12316 -23.3362,-35.98445 z m -0.25054,4.08791 c 8.93238,17.32632 -7.10696,40.03381 -3.71829,60.66785 -8.38684,-15.72581 6.73802,-41.31457 3.71829,-60.66785 z" style="fill:#6b411d;fill-opacity:1;stroke:none"/> <path style="fill:#6b411d;fill-opacity:1;stroke:none" d="m 551.77348,295.3351 c -20.518,12.79373 -23.12141,45.6681 -5.81224,73.42774 17.30916,27.75965 47.9745,39.8897 68.49252,27.09597 20.518,-12.79375 23.12141,-45.66812 5.81224,-73.42776 -17.30916,-27.75965 -47.9745,-39.8897 -68.49252,-27.09595 z m 3.72161,5.96853 c 29.75567,15.34151 29.9365,63.08647 55.23152,88.57775 -27.39816,-13.64586 -31.72846,-64.51073 -55.23152,-88.57775 z" id="path3804"/> <path id="path3806" d="m 425.52312,358.93007 c 9.89404,13.50059 32.72153,13.59497 50.98703,0.20893 18.26552,-13.38604 25.05038,-35.1821 15.15636,-48.6827 -9.89404,-13.50059 -32.72153,-13.59497 -50.98704,-0.20893 -18.26551,13.38604 -25.05037,35.1821 -15.15635,48.6827 z m 3.92724,-2.8781 c 9.0488,-21.33448 41.99699,-23.93222 58.28307,-42.71329 -8.00042,19.61929 -42.88735,25.24297 -58.28307,42.71329 z" style="fill:#6b411d;fill-opacity:1;stroke:none"/> <path id="path3808" d="m 535.9313,611.393 c -11.48295,-8.66005 -30.28995,-3.08753 -42.00649,12.44821 -11.71654,15.53575 -11.90459,35.15005 -0.42166,43.8101 11.48295,8.66005 30.28996,3.08753 42.00649,-12.44821 11.71654,-15.53575 11.90459,-35.15005 0.42166,-43.8101 z m -2.51915,3.34031 c -2.1652,19.79482 -28.6337,30.08763 -37.38609,49.57272 1.72706,-18.124 29.04187,-31.38653 37.38609,-49.57272 z" style="fill:#6b411d;fill-opacity:1;stroke:none"/> <path style="fill:#6b411d;fill-opacity:1;stroke:none" d="m 121.36521,413.45846 c 14.37519,-0.88105 26.99571,14.17003 28.18771,33.6188 1.192,19.44878 -9.49603,35.92842 -23.87121,36.80946 -14.37519,0.88105 -26.995714,-14.17002 -28.187713,-33.6188 -1.192006,-19.44878 9.496023,-35.92842 23.871213,-36.80946 z m 0.25629,4.18164 c -9.13717,17.72354 7.2699,40.95165 3.80354,62.05876 8.57912,-16.08635 -6.8925,-42.26178 -3.80354,-62.05876 z" id="path3814"/> <path id="path3808-6" d="m 374.06459,371.38886 c -20.78706,0.39387 -37.2076,23.51051 -36.6747,51.63416 0.5329,28.12365 17.81741,50.60161 38.60445,50.20778 20.78705,-0.39393 37.2076,-23.51057 36.6747,-51.63421 -0.5329,-28.12366 -17.81741,-50.60161 -38.60445,-50.20773 z m 0.11454,6.0468 c 15.19666,24.44715 -5.72732,59.76785 1.70044,89.73931 -14.20443,-22.15585 5.03282,-61.60944 -1.70044,-89.73931 z" style="fill:#6b411d;fill-opacity:1;stroke:none"/> <path style="fill:#6b411d;fill-opacity:1;stroke:none" d="m 372.89315,776.24465 c -15.24746,0.28891 -27.29204,17.24513 -26.90116,37.87403 0.39089,20.6289 13.0692,37.11664 28.31665,36.82776 15.24745,-0.28894 27.29204,-17.24517 26.90116,-37.87406 -0.39089,-20.62891 -13.0692,-37.11665 -28.31665,-36.82773 z m 0.084,4.43537 c 11.14686,17.93216 -4.20103,43.84015 1.24728,65.82443 -10.41905,-16.25148 3.69161,-45.19097 -1.24728,-65.82443 z" id="path3896"/> <path id="path3898" d="m 476.25582,684.69799 c -18.79471,-10.99778 -46.09331,0.69839 -60.97263,26.12652 -14.87932,25.42812 -11.70333,54.95651 7.09133,65.95432 18.79475,10.99772 46.09335,-0.69845 60.97266,-26.12657 14.87932,-25.42813 11.70333,-54.95652 -7.09136,-65.95427 z m -3.19921,5.46721 c 0.23466,30.14851 -37.75261,50.29387 -47.47815,81.13822 -0.59886,-27.55877 38.13738,-52.3191 47.47815,-81.13822 z" style="fill:#6b411d;fill-opacity:1;stroke:none"/> <path id="path3900" d="m 131.67668,488.0186 c 22.20678,-12.48257 53.89998,1.75186 70.78813,31.79631 16.88816,30.04447 12.57432,64.51862 -9.63245,77.00117 -22.20677,12.48256 -53.89997,-1.75187 -70.78812,-31.79632 -16.88816,-30.04445 -12.57432,-64.51862 9.63244,-77.00116 z m 3.6311,6.45978 c -0.88604,35.25916 43.13805,59.59322 53.8881,95.86831 1.25949,-32.22258 -43.54703,-61.96989 -53.8881,-95.86831 z" style="fill:#6b411d;fill-opacity:1;stroke:none"/> <path style="fill:#6b411d;fill-opacity:1;stroke:none" d="m 199.64508,604.0222 c 9.53489,-7.1909 25.15133,-2.56374 34.88017,10.33639 9.72886,12.90015 9.885,29.18692 0.35013,36.37781 -9.53489,7.19089 -25.15133,2.56374 -34.88017,-10.3364 -9.72885,-12.90014 -9.885,-29.18691 -0.35013,-36.3778 z m 2.09178,2.77363 c 1.79788,16.43667 23.77605,24.98332 31.04362,41.16281 -1.43407,-15.0493 -24.11498,-26.06187 -31.04362,-41.16281 z" id="path3902"/> <path style="fill:#6b411d;fill-opacity:1;stroke:none" d="m 280.42744,694.84876 c 15.58402,-9.11902 38.21921,0.57909 50.55669,21.66334 12.33749,21.08424 9.70405,45.56831 -5.87992,54.68736 -15.58404,9.11898 -38.21924,-0.57913 -50.55671,-21.66337 -12.3375,-21.08425 -9.70405,-45.56832 5.87994,-54.68733 z m 2.65269,4.53325 c -0.19458,24.99826 31.30335,41.70219 39.36747,67.2774 0.49656,-22.85091 -31.62238,-43.38144 -39.36747,-67.2774 z" id="path3904"/> <path id="path3906" d="m 191.68108,304.19841 c 16.8998,10.53765 19.04412,37.61486 4.7873,60.47929 -14.25682,22.86444 -39.51455,32.85544 -56.41436,22.31779 -16.8998,-10.53766 -19.04412,-37.61487 -4.7873,-60.4793 14.25682,-22.86444 39.51455,-32.85544 56.41436,-22.31778 z m -3.06533,4.91603 c -24.50847,12.63614 -24.65741,51.96162 -45.49184,72.9577 22.56669,-11.23951 26.13338,-53.13473 45.49184,-72.9577 z" style="fill:#6b411d;fill-opacity:1;stroke:none"/> <path style="fill:#6b411d;fill-opacity:1;stroke:none" d="m 325.67132,362.8317 c -14.40264,19.65267 -47.63238,19.79006 -74.22128,0.30414 -26.58892,-19.48593 -36.46558,-51.21422 -22.06295,-70.86689 14.40264,-19.65267 47.63238,-19.79006 74.2213,-0.30414 26.5889,19.48593 36.46556,51.21422 22.06293,70.86689 z m -5.71683,-4.18962 C 306.78223,327.58571 258.8199,323.8042 235.11244,296.4648 c 11.64612,28.55959 62.43065,36.74592 84.84205,62.17728 z" id="path3908"/> <path id="path3906-5" d="m 230.56844,355.97907 c 7.8543,4.89744 8.85089,17.48176 2.22493,28.10816 -6.62595,10.6264 -18.36465,15.26979 -26.21895,10.37234 -7.8543,-4.89745 -8.85089,-17.48177 -2.22493,-28.10816 6.62595,-10.62641 18.36465,-15.26979 26.21895,-10.37234 z m -1.42463,2.28475 c -11.39048,5.87274 -11.4597,24.14952 -21.14264,33.90759 10.48802,-5.22364 12.14566,-24.69473 21.14264,-33.90759 z" style="fill:#6b411d;fill-opacity:1;stroke:none"/> <path id="path3906-5-3" d="m 362.81019,723.71816 c 7.6109,-5.26774 19.55839,-1.19148 26.68532,9.10563 7.12694,10.2971 6.73378,22.91469 -0.87714,28.18243 -7.61091,5.26774 -19.55839,1.19148 -26.68532,-9.10563 -7.12695,-10.29711 -6.73377,-22.91469 0.87714,-28.18243 z m 1.53234,2.21395 c 0.87347,12.78551 17.62383,20.09787 22.74121,32.85686 -0.63553,-11.69962 -17.85227,-20.94381 -22.74121,-32.85686 z" style="fill:#6b411d;fill-opacity:1;stroke:none"/> <path id="path3906-5-3-5" d="m 424.23877,390.86101 c 7.6109,-5.26774 19.55839,-1.19148 26.68532,9.10563 7.12694,10.2971 6.73378,22.91469 -0.87714,28.18243 -7.61091,5.26774 -19.55839,1.19148 -26.68532,-9.10563 -7.12695,-10.29711 -6.73377,-22.91469 0.87714,-28.18243 z m 1.53234,2.21395 c 0.87347,12.78551 17.62383,20.09787 22.74121,32.85686 -0.63553,-11.69962 -17.85227,-20.94381 -22.74121,-32.85686 z" style="fill:#6b411d;fill-opacity:1;stroke:none"/> <path id="path3906-5-3-5-6" d="m 253.18317,543.59542 c 7.07784,5.96483 6.27432,18.56295 -1.79575,28.13884 -8.07006,9.57589 -20.34987,12.50238 -27.42771,6.53754 -7.07784,-5.96484 -6.27432,-18.56295 1.79575,-28.13884 8.07006,-9.5759 20.34987,-12.50237 27.42771,-6.53754 z m -1.73512,2.05889 c -12.11,4.19286 -14.77817,22.27396 -25.75063,30.55553 11.12438,-3.67873 15.5347,-22.71607 25.75063,-30.55553 z" style="fill:#6b411d;fill-opacity:1;stroke:none"/> <path id="path3906-5-3-5-6-2" d="m 457.12447,448.35995 c 9.67898,8.15694 8.58016,25.38493 -2.4557,38.48 -11.03585,13.09508 -27.82854,17.09707 -37.50753,8.94012 -9.67898,-8.15695 -8.58016,-25.38492 2.4557,-38.48 11.03584,-13.09509 27.82854,-17.09705 37.50753,-8.94012 z m -2.37279,2.81555 c -16.56048,5.73375 -20.20922,30.45975 -35.21411,41.78483 15.21264,-5.03068 21.24377,-31.06433 35.21411,-41.78483 z" style="fill:#6b411d;fill-opacity:1;stroke:none"/> <path id="path3906-5-3-5-6-2-9" d="m 282.87553,385.79498 c -9.67898,8.15693 -8.58016,25.38492 2.4557,38.47999 11.03585,13.09508 27.82854,17.09707 37.50753,8.94012 9.67898,-8.15695 8.58016,-25.38492 -2.4557,-38.48 -11.03584,-13.09508 -27.82854,-17.09704 -37.50753,-8.94011 z m 2.37279,2.81555 c 16.56048,5.73374 20.20922,30.45974 35.21411,41.78482 -15.21264,-5.03068 -21.24377,-31.06433 -35.21411,-41.78482 z" style="fill:#6b411d;fill-opacity:1;stroke:none"/> <path id="path3906-5-3-5-6-2-9-1" d="m 318.59328,624.34631 c -12.60305,-1.17528 -24.10954,11.69374 -25.69961,28.74492 -1.59008,17.05119 7.33854,31.82583 19.94161,33.00111 12.60306,1.17527 24.10953,-11.69374 25.69961,-28.74493 1.59008,-17.05117 -7.33856,-31.82581 -19.94161,-33.0011 z m -0.34189,3.66614 c 7.5316,15.82404 -7.52942,35.77033 -5.07372,54.40829 -7.08708,-14.3703 7.2345,-36.93173 5.07372,-54.40829 z" style="fill:#6b411d;fill-opacity:1;stroke:none"/> <path id="path3906-5-3-5-6-2-9-1-2" d="m 395.88498,574.96876 c -25.76197,-2.4024 -49.28247,23.90324 -52.53273,58.75766 -3.25029,34.85445 15.00075,65.05538 40.76277,67.45777 25.762,2.40238 49.28244,-23.90324 52.53273,-58.75769 3.25029,-34.8544 -15.0008,-65.05533 -40.76277,-67.45774 z m -0.69886,7.49397 c 15.39539,32.34602 -15.39093,73.11836 -10.37122,111.21634 -14.48674,-29.37444 14.78808,-75.4924 10.37122,-111.21634 z" style="fill:#6b411d;fill-opacity:1;stroke:none"/> <path id="path3906-5-3-5-6-2-9-1-2-7" d="m 204.22093,424.45061 c -19.55858,16.9385 -16.83858,52.12091 6.07823,78.58248 22.91681,26.46161 57.34986,34.1792 76.90847,17.24066 19.55859,-16.93852 16.83856,-52.12088 -6.07825,-78.58249 -22.91677,-26.46158 -57.34986,-34.17913 -76.90845,-17.24065 z m 4.92727,5.68947 c 34.00611,11.26355 42.14433,61.70114 73.12482,84.43576 -31.2319,-9.86366 -44.27553,-62.90841 -73.12482,-84.43576 z" style="fill:#6b411d;fill-opacity:1;stroke:none"/> <path id="path3808-6-0" d="m 557.03476,499.01946 c 11.46527,-16.28475 2.90081,-42.06118 -19.13149,-57.573 -22.0323,-15.51181 -49.18702,-14.88342 -60.65232,1.40129 -11.46523,16.28477 -2.90077,42.06121 19.13152,57.57302 22.03231,15.51182 49.18703,14.88343 60.65229,-1.40131 z m -4.73709,-3.33519 c -27.49415,-2.0998 -42.93859,-38.26587 -70.30252,-49.4964 25.1619,1.56914 44.75478,38.77195 70.30252,49.4964 z" style="fill:#6b411d;fill-opacity:1;stroke:none"/> <path id="path3906-5-9" d="m 580.66228,409.81555 c 6.0452,3.7694 6.81224,13.45514 1.71246,21.63394 -5.09978,8.17879 -14.13467,11.75266 -20.17987,7.98325 -6.0452,-3.76941 -6.81224,-13.45515 -1.71246,-21.63394 5.09978,-8.1788 14.13467,-11.75265 20.17987,-7.98325 z m -1.09649,1.7585 c -8.76688,4.52006 -8.82016,18.5871 -16.2728,26.09757 8.07229,-4.02047 9.34812,-19.00673 16.2728,-26.09757 z" style="fill:#6b411d;fill-opacity:1;stroke:none"/> <path id="path3906-5-9-3" d="m 162.82295,428.05126 c 4.07193,5.8457 13.78414,6.11923 21.69303,0.61015 7.90889,-5.50908 11.01871,-14.71401 6.94677,-20.55971 -4.07193,-5.84571 -13.78414,-6.11923 -21.69303,-0.61016 -7.90889,5.50908 -11.01869,14.71401 -6.94677,20.55972 z m 1.70047,-1.18449 c 4.06842,-8.98539 18.11455,-9.75391 25.23633,-17.57882 -3.60479,8.26629 -18.50678,10.30252 -25.23633,17.57882 z" style="fill:#6b411d;fill-opacity:1;stroke:none"/> <path id="path3906-5-9-3-6" d="m 257.6943,415.51856 c 5.52063,-0.5167 9.42965,-6.99011 8.73059,-14.45919 -0.69907,-7.46908 -5.74141,-13.10468 -11.26204,-12.58797 -5.52064,0.51669 -9.42965,6.99009 -8.73059,14.45917 0.69905,7.46909 5.74141,13.10468 11.26204,12.58799 z m -0.1503,-1.60591 c -4.52612,-6.20071 0.33878,-16.00909 -2.23063,-23.83296 4.21681,5.61097 -0.11758,16.4851 2.23063,23.83296 z" style="fill:#6b411d;fill-opacity:1;stroke:none"/> <path id="path3906-5-3-5-6-2-9-1-0" d="m 546.77097,391.39575 c 0.39453,15.01073 -15.74799,27.61291 -36.0566,28.14667 -20.30863,0.53376 -37.09081,-11.20306 -37.48534,-26.2138 -0.39451,-15.01075 15.74798,-27.61291 36.05661,-28.14668 20.30861,-0.53376 37.09079,11.20309 37.48533,26.21381 z m -4.36652,0.11478 c -18.13479,-10.1662 -42.93549,6.0837 -64.8024,1.70315 16.4492,9.52509 44.28687,-5.64278 64.8024,-1.70315 z" style="fill:#6b411d;fill-opacity:1;stroke:none"/> <path id="path3906-5-9-3-6-6" d="m 532.6943,594.45719 c 5.52063,-0.5167 9.42965,-6.99011 8.73059,-14.45919 -0.69907,-7.46908 -5.74141,-13.10468 -11.26204,-12.58797 -5.52064,0.51669 -9.42965,6.99009 -8.73059,14.45917 0.69905,7.46909 5.74141,13.10468 11.26204,12.58799 z m -0.1503,-1.60591 c -4.52612,-6.20071 0.33878,-16.00909 -2.23063,-23.83296 4.21681,5.61097 -0.11758,16.4851 2.23063,23.83296 z" style="fill:#6b411d;fill-opacity:1;stroke:none"/> <path id="path3906-5-9-3-6-6-2" d="m 576.78184,495.939 c 4.95919,2.48008 11.69962,-0.94804 15.05502,-7.65752 3.35539,-6.70949 2.0548,-14.15889 -2.90439,-16.63896 -4.95919,-2.4801 -11.69961,0.94802 -15.05501,7.6575 -3.35542,6.70949 -2.0548,14.15889 2.90438,16.63898 z m 0.72144,-1.44259 c -0.56365,-7.65616 8.7513,-13.40971 10.70668,-21.40917 0.61288,6.99206 -8.8152,13.93071 -10.70668,21.40917 z" style="fill:#6b411d;fill-opacity:1;stroke:none"/> <path id="path3906-5-9-6" d="m 339.23371,577.55359 c 6.0452,3.7694 6.81224,13.45514 1.71246,21.63394 -5.09978,8.17879 -14.13467,11.75266 -20.17987,7.98325 -6.0452,-3.76941 -6.81224,-13.45515 -1.71246,-21.63394 5.09978,-8.1788 14.13467,-11.75265 20.17987,-7.98325 z m -1.09649,1.7585 c -8.76688,4.52006 -8.82016,18.5871 -16.2728,26.09757 8.07229,-4.02047 9.34812,-19.00673 16.2728,-26.09757 z" style="fill:#6b411d;fill-opacity:1;stroke:none"/> <path id="path3906-5-3-5-6-2-9-18" d="m 344.89818,546.00323 c -2.01267,-12.49669 -17.3496,-20.42069 -34.25688,-17.69763 -16.90728,2.72304 -28.98074,15.06168 -26.96805,27.55839 2.0127,12.4967 17.3496,20.42069 34.25689,17.69764 16.90728,-2.72304 28.98071,-15.0617 26.96804,-27.5584 z m -3.6352,0.58547 c -13.43877,11.24832 -36.51684,1.6519 -53.94911,8.68894 12.14231,-10.45449 37.56763,-2.22779 53.94911,-8.68894 z" style="fill:#6b411d;fill-opacity:1;stroke:none"/> <path id="path3906-5-3-5-6-2-9-7" d="m 447.48042,558.28079 c 11.58007,-5.11078 26.5733,3.44576 33.48786,19.11292 6.91457,15.66716 3.13138,32.51049 -8.44872,37.62127 -11.58009,5.11077 -26.57329,-3.44576 -33.48786,-19.11292 -6.91458,-15.66715 -3.13136,-32.51048 8.44872,-37.62127 z m 1.4867,3.36856 c -2.12553,17.39562 18.48285,31.53716 22.06354,49.99205 2.16489,-15.87594 -18.57141,-32.73214 -22.06354,-49.99205 z" style="fill:#6b411d;fill-opacity:1;stroke:none"/> <path id="path3906-5-9-3-6-6-2-9" d="m 480.22155,542.155 c 5.74717,-7.08854 2.63249,-19.13832 -6.95789,-26.91389 -9.59037,-7.77557 -22.02371,-8.33171 -27.77087,-1.24316 -5.74721,7.08853 -2.63253,19.13828 6.95783,26.91387 9.59039,7.77562 22.02373,8.3317 27.77093,1.24318 z m -2.062,-1.6718 c -12.50385,-1.81388 -18.44102,-18.82701 -30.60173,-24.81096 11.45412,1.49885 19.25557,19.11476 30.60173,24.81096 z" style="fill:#6b411d;fill-opacity:1;stroke:none"/> <path id="path3906-5-9-2" d="m 259.77161,579.91595 c 10.91257,-4.75865 24.97846,3.35132 31.41662,18.1154 6.43814,14.76405 2.80993,30.58985 -8.10265,35.34849 -10.91259,4.75864 -24.97847,-3.35131 -31.41662,-18.11537 -6.43817,-14.76408 -2.80993,-30.58988 8.10265,-35.34852 z m 1.38425,3.17438 c -2.07142,16.35215 17.25241,29.73828 20.5434,47.1104 2.10214,-14.92268 -17.33069,-30.86254 -20.5434,-47.1104 z" style="fill:#6b411d;fill-opacity:1;stroke:none"/> <path id="path3906-5-0" d="m 470.15481,634.64781 c 6.64823,4.14541 7.49179,14.79734 1.88328,23.79201 -5.6085,8.99466 -15.54467,12.92503 -22.1929,8.77961 -6.64823,-4.14542 -7.49179,-14.79735 -1.88328,-23.79201 5.6085,-8.99467 15.54467,-12.92503 22.1929,-8.77961 z m -1.20587,1.93391 c -9.64142,4.97095 -9.70001,20.44124 -17.89608,28.70091 8.87753,-4.42152 10.28063,-20.90273 17.89608,-28.70091 z" style="fill:#6b411d;fill-opacity:1;stroke:none"/> <path id="path3906-5-9-23" d="m 500.76631,523.26788 c -6.0452,3.7694 -6.81224,13.45514 -1.71246,21.63394 5.09978,8.17879 14.13467,11.75266 20.17987,7.98325 6.0452,-3.76941 6.81224,-13.45515 1.71246,-21.63394 -5.09978,-8.1788 -14.13467,-11.75265 -20.17987,-7.98325 z m 1.09649,1.7585 c 8.76688,4.52006 8.82016,18.5871 16.2728,26.09757 -8.07229,-4.02047 -9.34812,-19.00673 -16.2728,-26.09757 z" style="fill:#6b411d;fill-opacity:1;stroke:none"/> <path id="path3906-5-3-5-6-2-9-75" d="m 361.69555,492.57374 c 8.07808,-6.88912 22.18247,-3.61497 31.50302,7.31419 9.32055,10.92916 10.32681,25.37356 2.24873,32.26268 -8.0781,6.88912 -22.18247,3.61497 -31.50302,-7.31419 -9.32056,-10.92915 -10.3268,-25.37356 -2.24873,-32.26268 z m 2.004,2.34985 c 2.47107,14.48999 22.42963,20.90331 29.74077,34.87366 -2.07435,-13.2782 -22.78788,-21.84233 -29.74077,-34.87366 z" style="fill:#6b411d;fill-opacity:1;stroke:none"/> <path id="path3906-5-9-3-6-9" d="m 172.6943,480.17147 c 5.52063,-0.5167 9.42965,-6.99011 8.73059,-14.45919 -0.69907,-7.46908 -5.74141,-13.10468 -11.26204,-12.58797 -5.52064,0.51669 -9.42965,6.99009 -8.73059,14.45917 0.69905,7.46909 5.74141,13.10468 11.26204,12.58799 z m -0.1503,-1.60591 c -4.52612,-6.20071 0.33878,-16.00909 -2.23063,-23.83296 4.21681,5.61097 -0.11758,16.4851 2.23063,23.83296 z" style="fill:#6b411d;fill-opacity:1;stroke:none"/> <path id="path3906-5-9-3-6-6-2-2" d="m 383.93933,558.40621 c 1.30096,5.38998 8.26689,8.33297 15.5592,6.57286 7.29231,-1.76013 12.14881,-7.55665 10.84784,-12.94662 -1.30094,-5.38999 -8.26687,-8.33298 -15.55918,-6.57286 -7.29233,1.7601 -12.14881,7.55664 -10.84786,12.94662 z m 1.5679,-0.37844 c 5.48963,-5.36642 15.89296,-1.95434 23.26892,-5.61633 -4.9502,4.97595 -16.33245,2.24136 -23.26892,5.61633 z" style="fill:#6b411d;fill-opacity:1;stroke:none"/> <path id="path3906-5-2" d="m 340.56844,463.12194 c 7.8543,4.89744 8.85089,17.48176 2.22493,28.10816 -6.62595,10.6264 -18.36465,15.26979 -26.21895,10.37234 -7.8543,-4.89745 -8.85089,-17.48177 -2.22493,-28.10816 6.62595,-10.62641 18.36465,-15.26979 26.21895,-10.37234 z m -1.42463,2.28475 c -11.39048,5.87274 -11.4597,24.14952 -21.14264,33.90759 10.48802,-5.22364 12.14566,-24.69473 21.14264,-33.90759 z" style="fill:#6b411d;fill-opacity:1;stroke:none"/> <path style="fill:#6b411d;fill-opacity:1;stroke:none" d="m 247.68964,664.11325 c 5.11692,-3.85901 13.49752,-1.37584 18.71853,5.54705 5.22101,6.9229 5.30481,15.66323 0.18789,19.52225 -5.11692,3.859 -13.49752,1.37584 -18.71852,-5.54706 -5.22102,-6.92289 -5.30482,-15.66323 -0.1879,-19.52224 z m 1.12256,1.48848 c 0.96483,8.82078 12.75947,13.40736 16.65963,22.09012 -0.7696,-8.07624 -12.94136,-13.98616 -16.65963,-22.09012 z" id="path3902-8"/> <path style="fill:#7a5230;fill-opacity:1;stroke:none" d="M 261.9375 277.4375 C 248.50612 277.4927 236.57632 282.45492 229.375 292.28125 C 217.9296 307.89872 221.82788 331.1219 237.25 349.78125 C 252.72222 345.59501 273.46693 337.70862 289.46875 337 C 267.21126 325.18532 242.76072 315.19369 235.125 296.46875 C 252.77181 316.81902 283.85784 324.13127 304.03125 339.34375 C 306.55388 340.57588 308.68885 342.34425 310.3125 344.75 C 314.36072 348.74995 317.69301 353.29071 319.96875 358.65625 C 317.80717 356.2034 315.37892 353.91593 312.75 351.75 C 313.09302 359.99831 305.51831 368.0183 303.90625 376.46875 C 312.80228 374.46631 320.46231 369.93098 325.65625 362.84375 C 340.05888 343.19108 330.18265 311.45468 303.59375 291.96875 C 290.29929 282.22579 275.36888 277.38231 261.9375 277.4375 z M 570.96875 290.25 C 564.11561 290.11199 557.55194 291.74551 551.78125 295.34375 C 531.26325 308.13748 528.65958 340.99036 545.96875 368.75 C 563.27791 396.50965 593.95073 408.63748 614.46875 395.84375 C 634.98675 383.05 637.59042 350.19714 620.28125 322.4375 C 607.84029 302.48525 588.48233 290.60269 570.96875 290.25 z M 175.875 300 C 163.68356 300.24552 150.43774 307.31032 140.4375 319.40625 C 170.72208 311.94407 171.40588 322.74914 169.09375 331.9375 C 173.78447 322.1942 179.52466 313.81698 188.625 309.125 C 180.24019 317.71101 174.81968 330.42113 169.53125 343 C 182.9113 345.9424 193.65078 335.72819 205.90625 333.53125 C 205.91055 321.01859 201.07717 310.0423 191.6875 304.1875 C 186.93443 301.22378 181.51964 299.88633 175.875 300 z M 469.3125 300.28125 C 460.08568 300.24335 449.82025 303.55698 440.6875 310.25 C 422.42199 323.63604 415.63723 345.4369 425.53125 358.9375 C 435.42529 372.43809 458.2345 372.51104 476.5 359.125 C 494.76552 345.73896 501.55027 323.96935 491.65625 310.46875 C 486.70923 303.71846 478.53932 300.31916 469.3125 300.28125 z M 555.5 301.3125 C 585.25567 316.65401 585.42373 364.38372 610.71875 389.875 C 583.32059 376.22914 579.00306 325.37952 555.5 301.3125 z M 487.71875 313.34375 C 479.71833 332.96304 444.83322 338.59218 429.4375 356.0625 C 438.4863 334.72802 471.43267 332.12482 487.71875 313.34375 z M 511.1875 365.15625 C 510.56014 365.14925 509.91589 365.1708 509.28125 365.1875 C 488.97262 365.72127 472.82424 378.333 473.21875 393.34375 C 473.61328 408.35449 490.41012 420.06501 510.71875 419.53125 C 531.02736 418.99749 547.17578 406.41698 546.78125 391.40625 C 546.39904 376.86461 530.63578 365.37361 511.1875 365.15625 z M 374.0625 371.375 C 353.27544 371.76887 336.8421 394.9076 337.375 423.03125 C 337.61158 435.5167 341.15878 446.87666 346.84375 455.625 C 354.6365 453.12204 362.65179 450.4986 370.5625 447.96875 C 369.60492 426.17405 379.25208 398.59603 374.1875 377.4375 C 386.03477 396.49642 375.92054 422.15758 374.40625 446.75 C 389.10214 442.07635 402.6431 437.94439 411.40625 435.9375 C 412.30034 431.379 412.75041 426.56311 412.65625 421.59375 C 412.12335 393.47009 394.84954 370.98112 374.0625 371.375 z M 304.125 383.21875 C 304.1786 383.40606 304.21862 383.59336 304.28125 383.78125 C 310.18668 401.49752 337.77932 400.28319 314.28125 423.78125 C 314.20394 423.85856 314.11374 423.97328 314.03125 424.0625 C 315.95485 426.43624 318.0607 428.58875 320.46875 430.40625 C 317.61638 429.463 315.10117 427.77418 312.78125 425.59375 C 310.91937 428.0919 308.45073 432.24031 306 437.03125 C 312.28967 438.19477 318.33741 437.01646 322.84375 433.21875 C 332.52273 425.0618 331.41086 407.84508 320.375 394.75 C 315.67357 389.17131 309.92215 385.2661 304.125 383.21875 z M 527.71875 388.09375 C 532.93569 388.06835 537.87255 388.95845 542.40625 391.5 C 521.89072 387.56037 494.04295 402.74384 477.59375 393.21875 C 493.99393 396.50416 512.06793 388.16983 527.71875 388.09375 z M 431.5 388.5625 C 428.87709 388.6353 426.39057 389.39345 424.25 390.875 C 416.63909 396.14274 416.24805 408.73414 423.375 419.03125 C 430.50193 429.32836 442.45159 433.42399 450.0625 428.15625 C 457.67342 422.88851 458.06444 410.26585 450.9375 399.96875 C 445.81502 392.5677 438.20298 388.3765 431.5 388.5625 z M 425.78125 393.0625 C 430.67019 404.97555 447.86447 414.23788 448.5 425.9375 C 443.38262 413.17851 426.65472 405.84801 425.78125 393.0625 z M 574.6875 408.3125 C 569.6152 408.56072 564.05454 412.06178 560.46875 417.8125 C 555.36897 425.99129 556.1423 435.66809 562.1875 439.4375 C 568.2327 443.20691 577.27522 439.61629 582.375 431.4375 C 587.47478 423.2587 586.70145 413.5819 580.65625 409.8125 C 579.14495 408.87015 577.46431 408.37973 575.6875 408.3125 C 575.35435 408.29989 575.02565 408.29595 574.6875 408.3125 z M 579.5625 411.5625 C 572.63782 418.65334 571.35354 433.63578 563.28125 437.65625 C 570.73389 430.14578 570.79562 416.08256 579.5625 411.5625 z M 628.6875 414.21875 C 615.18647 414.31675 603.59762 428.70628 602.46875 447.125 C 601.30346 466.13788 611.72825 482.23246 625.78125 483.09375 C 639.83424 483.95505 652.17846 469.23163 653.34375 450.21875 C 654.50904 431.20587 644.053 415.11129 630 414.25 C 629.56084 414.2231 629.12302 414.21565 628.6875 414.21875 z M 629.75 418.34375 C 638.68238 435.67007 622.64258 458.36596 626.03125 479 C 617.64441 463.27419 632.76973 437.69703 629.75 418.34375 z M 503.625 430.21875 C 492.64912 430.47246 482.98265 434.70139 477.25 442.84375 C 465.78477 459.12852 474.34271 484.89444 496.375 500.40625 C 518.40731 515.91807 545.56599 515.31599 557.03125 499.03125 C 568.49652 482.7465 559.93855 456.94932 537.90625 441.4375 C 526.8901 433.68165 514.60088 429.96504 503.625 430.21875 z M 445.15625 444.125 C 436.59296 444.02003 426.86727 448.71885 419.625 457.3125 C 408.58914 470.40758 407.47727 487.6243 417.15625 495.78125 C 426.83524 503.9382 443.6204 499.93883 454.65625 486.84375 C 465.69211 473.74868 466.80398 456.53194 457.125 448.375 C 453.79785 445.57106 449.64178 444.17998 445.15625 444.125 z M 482 446.1875 C 507.1619 447.75664 526.76476 484.96305 552.3125 495.6875 C 524.81835 493.5877 509.36393 457.41803 482 446.1875 z M 407.125 449.4375 C 397.38874 456.61119 384.32343 465.26313 372.78125 473.09375 C 373.84625 473.19545 374.9141 473.23932 376 473.21875 C 389.22551 472.96812 400.68178 463.51903 407.125 449.4375 z M 454.75 451.1875 C 440.77966 461.908 434.74389 487.93807 419.53125 492.96875 C 434.53614 481.64367 438.18952 456.92125 454.75 451.1875 z M 584.96875 470.84375 C 580.82356 471.07612 576.39155 474.28039 573.875 479.3125 C 570.51958 486.02199 571.82207 493.45741 576.78125 495.9375 C 581.74044 498.41758 588.48835 494.99073 591.84375 488.28125 C 595.19914 481.57176 593.89669 474.13632 588.9375 471.65625 C 587.6977 471.03623 586.35048 470.76629 584.96875 470.84375 z M 588.21875 473.09375 C 588.83163 480.08581 579.39148 487.02154 577.5 494.5 C 576.93635 486.84384 586.26337 481.09321 588.21875 473.09375 z M 371.71875 488.96875 C 367.95682 489.03695 364.46434 490.19437 361.6875 492.5625 C 353.60943 499.45162 354.61694 513.9146 363.9375 524.84375 C 373.25805 535.77291 387.3594 539.04537 395.4375 532.15625 C 403.51558 525.26713 402.50805 510.80416 393.1875 499.875 C 387.07089 492.70274 378.90062 488.83864 371.71875 488.96875 z M 363.6875 494.9375 C 370.64039 507.96883 391.36315 516.5343 393.4375 529.8125 C 386.12636 515.84215 366.15857 509.42749 363.6875 494.9375 z M 598.75 500.625 C 584.14432 500.73656 568.11349 510.99463 558.15625 527.96875 C 559.15963 530.88438 556.07437 536.69832 551.625 543.1875 C 549.64911 550.22168 549.07269 557.21414 549.78125 563.625 C 561.83484 557.00589 576.60198 548.3664 588.03125 544.0625 C 596.98463 532.78938 606.33026 521.35073 610.03125 509.21875 C 610.33154 521.16856 604.04059 531.51874 596.125 541.71875 C 601.0305 540.86898 604.54854 541.70812 605.71875 545.21875 C 609.0795 555.30102 588.37383 568.1253 570.5 577.375 C 569.49126 579.59079 568.59729 581.85566 567.90625 584.1875 C 567.83155 582.27634 568.00018 580.39135 568.3125 578.5 C 564.53395 580.42115 561.17964 582.02789 558.03125 583.53125 C 560.03814 585.78742 562.37626 587.7088 565.0625 589.21875 C 582.42368 598.97757 607.20315 587.86366 620.40625 564.375 C 633.60936 540.88634 630.23618 513.94631 612.875 504.1875 C 608.5347 501.74779 603.72062 500.58703 598.75 500.625 z M 456.0625 509.03125 C 451.78782 509.24474 448.01438 510.89876 445.5 514 C 439.75279 521.08853 442.84714 533.13066 452.4375 540.90625 C 462.02789 548.68187 474.47155 549.24477 480.21875 542.15625 C 485.96592 535.06771 482.84038 523.02557 473.25 515.25 C 468.45481 511.36221 462.96303 509.25616 457.9375 509.03125 C 457.30931 509.00314 456.67317 509.00075 456.0625 509.03125 z M 447.5625 515.6875 C 459.01662 517.18635 466.81009 534.77255 478.15625 540.46875 C 465.6524 538.65487 459.72321 521.67145 447.5625 515.6875 z M 505.75 521.78125 C 503.97319 521.84845 502.29255 522.3389 500.78125 523.28125 C 494.73605 527.05065 493.96272 536.72745 499.0625 544.90625 C 500.42452 547.0906 502.05474 548.93251 503.84375 550.40625 C 506.67067 548.4205 509.44674 546.47995 512.15625 544.65625 C 508.71789 538.4524 506.62049 529.89061 501.875 525.03125 C 508.26259 528.32459 510.01312 536.67515 513.375 543.875 C 516.89242 541.52588 520.33593 539.30511 523.59375 537.3125 C 523.03821 535.27678 522.16304 533.21547 520.9375 531.25 C 517.11266 525.1159 511.08043 521.57956 505.75 521.78125 z M 316.875 527.78125 C 314.83362 527.80075 312.76966 527.97212 310.65625 528.3125 C 306.63257 528.96054 302.88274 530.13988 299.53125 531.75 C 294.2416 536.56782 289.25222 541.32205 285.03125 545.75 C 283.63691 548.97506 283.13231 552.42783 283.6875 555.875 C 284.43195 560.49724 286.98702 564.50056 290.78125 567.5625 C 302.41606 564.72719 313.35435 557.20151 323.90625 552.375 C 312.08621 553.11661 298.53424 550.75127 287.3125 555.28125 C 299.45481 544.82676 324.86852 553.0549 341.25 546.59375 C 340.58712 547.14858 339.8954 547.63586 339.1875 548.09375 C 339.45652 548.08481 339.73127 548.0625 340 548.0625 C 341.8976 548.0625 342.20842 552.74903 341.78125 559.40625 C 344.4577 555.28585 345.65533 550.65105 344.90625 546 C 343.14516 535.0654 331.16466 527.64457 316.875 527.78125 z M 398.8125 544.9375 C 397.50333 544.9517 396.14856 545.13873 394.78125 545.46875 C 387.48892 547.22885 382.63655 553.01627 383.9375 558.40625 C 385.23846 563.79623 392.20769 566.72886 399.5 564.96875 C 406.79231 563.20862 411.64472 557.42122 410.34375 552.03125 C 409.28674 547.65188 404.48556 544.87594 398.8125 544.9375 z M 408.78125 552.40625 C 403.83105 557.3822 392.43647 554.65628 385.5 558.03125 C 390.98963 552.66483 401.40529 556.06824 408.78125 552.40625 z M 454.28125 556.8125 C 451.94575 556.853 449.64001 557.32298 447.46875 558.28125 C 435.88867 563.39204 432.11667 580.2391 439.03125 595.90625 C 439.29894 596.51279 439.55248 597.10271 439.84375 597.6875 C 445.45214 593.61044 451.20023 589.33255 457.03125 584.96875 C 452.06816 577.38944 447.96278 569.88924 448.96875 561.65625 C 450.43356 568.89609 454.93013 576.06815 459.5 583.125 C 465.27081 578.79872 471.06737 574.4455 476.84375 570.125 C 470.84784 561.69101 462.30624 556.67331 454.28125 556.8125 z M 532.75 567.625 C 532.02588 568.56384 531.40948 569.37908 530.9375 570.0625 C 531.27703 570.70137 531.52658 571.39453 531.71875 572.125 C 533.15146 571.79599 534.95002 571.09895 537.0625 570.15625 C 535.78911 568.90234 534.31769 568.02559 532.75 567.625 z M 530.6875 570.40625 C 529.87048 571.62843 529.5472 572.375 530 572.375 C 530.29773 572.375 530.63994 572.33896 531 572.28125 C 530.93273 571.63985 530.82515 571.03038 530.6875 570.40625 z M 393.46875 574.8125 C 375.23834 574.36548 358.44157 588.15934 349.5625 608.90625 C 356.40324 606.40374 364.19483 602.32536 368.5625 603.78125 C 380.66392 607.81506 372.59908 625.11636 381.4375 628.0625 C 383.518 628.756 386.22546 628.61118 389.46875 627.75 C 393.43873 612.14937 396.92301 596.50571 395.1875 582.46875 C 401.41614 595.55524 400.08601 610.01466 396.625 625.125 C 405.92217 620.9754 417.83285 613.32172 431 604.03125 C 423.94129 587.72956 411.23952 576.40155 395.875 574.96875 C 395.06994 574.89365 394.26888 574.83212 393.46875 574.8125 z M 339.75 577.9375 C 338.38681 588.2005 336.87774 598.52418 336.75 604.15625 C 338.30265 602.77457 339.73142 601.12175 340.9375 599.1875 C 345.88015 591.2607 345.29353 581.93676 339.75 577.9375 z M 523.5625 607.3125 C 512.95701 619.6644 507.11306 634.48185 502.46875 650.09375 C 511.49964 638.4128 527.38394 627.84434 533.40625 614.71875 C 531.53772 631.8013 511.59102 641.8327 500.53125 656.78125 C 499.34194 661.07896 498.22017 665.43349 497.0625 669.78125 C 508.58968 675.11926 524.92822 669.20534 535.5 655.1875 C 547.21654 639.65175 547.42043 620.0663 535.9375 611.40625 C 532.37347 608.71838 528.1066 607.38608 523.5625 607.3125 z M 488.4375 698.0625 C 486.79687 702.43051 484.94021 706.74458 482.84375 710.9375 C 465.22484 746.17532 440.30286 756.67616 425.4375 778.34375 C 444.03365 786.50383 469.25325 774.73633 483.34375 750.65625 C 493.99117 732.46026 495.38882 712.16938 488.4375 698.0625 z " id="path4495"/> </g> </svg>